#N canvas 1007 221 642 397 10;
#X obj 33 105 bng 15 250 50 0 empty empty empty 17 7 0 10 -262144 -1
-1;
#X obj 534 112 print;
#X msg 32 143 connect 127.0.0.1 5433;
#X msg 161 175 send /q;
#X msg 65 203 disconnect;
#X msg 216 37 send /test/int 1 2 3 4 5 6;
#X msg 228 132 send /test/float 0.12 3.45 6;
#X msg 240 165 send /test/char c;
#X msg 221 88 send /test/string o meu nome é andré;
#X msg 384 195 send /LOL/djshhs/kahb;
#X msg 382 239 send /QUIT;
#X obj 56 298 udpsend;
#X obj 215 217 packOSC;
#X obj 534 80 unpackOSC;
#X obj 534 48 udpreceive 3465;
#X connect 0 0 2 0;
#X connect 2 0 11 0;
#X connect 3 0 12 0;
#X connect 4 0 11 0;
#X connect 5 0 12 0;
#X connect 6 0 12 0;
#X connect 7 0 12 0;
#X connect 8 0 12 0;
#X connect 9 0 12 0;
#X connect 10 0 12 0;
#X connect 12 0 11 0;
#X connect 13 0 1 0;
#X connect 14 0 13 0;
