#N canvas 890 173 939 851 10;
#X msg 18 658 connect 127.0.0.1 5433;
#X msg 173 657 disconnect;
#X msg 313 79 send /OSCP/window/fullscreen;
#X floatatom 512 109 5 0 0 0 - - -;
#X msg 338 135 send /OSCP/window/outline;
#X msg 238 -48 send /OSCP/quit;
#X msg 248 -25 send /OSCP/reload_brushes;
#X msg 300 55 send /OSCP/window/delete_surface 0;
#X msg 325 108 send /OSCP/window/select/ \$1;
#X obj 548 396 hsl 50 15 0 640 0 0 empty empty empty -2 -8 0 10 -262144
-1 -1 0 1;
#X floatatom 528 435 5 0 0 0 - - -;
#X msg 613 560 send /OSCP/window/surface/0/delete_brush/0;
#X msg 294 32 send /OSCP/window/create_surface 0 0 640 400;
#X obj 528 400 bng 15 250 50 0 empty empty empty 17 7 0 10 -262144
-1 -1;
#X obj 528 415 float;
#X floatatom 567 414 5 0 0 0 - - -;
#X obj 627 396 hsl 50 15 0 640 0 0 empty empty empty -2 -8 0 10 -262144
-1 -1 0 1;
#X floatatom 607 435 5 0 0 0 - - -;
#X obj 607 415 float;
#X floatatom 646 414 5 0 0 0 - - -;
#X obj 708 396 hsl 50 15 0 640 0 0 empty empty empty -2 -8 0 10 -262144
-1 -1 0 1;
#X floatatom 688 435 5 0 0 0 - - -;
#X obj 688 415 float;
#X floatatom 727 414 5 0 0 0 - - -;
#X obj 787 396 hsl 50 15 0 640 0 0 empty empty empty -2 -8 0 10 -262144
-1 -1 0 1;
#X floatatom 767 435 5 0 0 0 - - -;
#X obj 767 415 float;
#X floatatom 806 414 5 0 0 0 - - -;
#X obj 528 460 pack f f f f;
#X msg 528 483 send /OSCP/window/surface/0/update_brush/0 \$1 \$2 \$3
\$4;
#X obj 293 738 udpsend;
#X obj 293 709 packOSC;
#X obj 486 210 hsl 50 15 0 640 0 0 empty empty empty -2 -8 0 10 -262144
-1 -1 900 1;
#X floatatom 466 249 5 0 0 0 - - -;
#X obj 466 214 bng 15 250 50 0 empty empty empty 17 7 0 10 -262144
-1 -1;
#X floatatom 505 228 5 0 0 0 - - -;
#X obj 565 210 hsl 50 15 0 640 0 0 empty empty empty -2 -8 0 10 -262144
-1 -1 1900 1;
#X floatatom 545 249 5 0 0 0 - - -;
#X floatatom 584 228 5 0 0 0 - - -;
#X obj 646 210 hsl 50 15 0 640 0 0 empty empty empty -2 -8 0 10 -262144
-1 -1 0 1;
#X floatatom 626 249 5 0 0 0 - - -;
#X floatatom 665 228 5 0 0 0 - - -;
#X msg 466 297 send /OSCP/window/surface/0/update_brush/0 \$1 \$2 \$3
\$4;
#X msg 465 176 send /OSCP/window/surface/0/create_brush/TEST "bin/brushes/draw_circle.bru"
0 0 640 400;
#X msg 527 362 send /OSCP/window/surface/0/create_brush/TEST "bin/brushes/test.bru"
0 0 640 400;
#X obj 466 273 pack f f f;
#X obj 466 229 int;
#X obj 545 229 int;
#X obj 626 229 int;
#X connect 0 0 30 0;
#X connect 1 0 30 0;
#X connect 2 0 31 0;
#X connect 3 0 8 0;
#X connect 4 0 31 0;
#X connect 5 0 31 0;
#X connect 6 0 31 0;
#X connect 7 0 31 0;
#X connect 8 0 31 0;
#X connect 9 0 14 1;
#X connect 9 0 15 0;
#X connect 10 0 28 0;
#X connect 11 0 31 0;
#X connect 12 0 31 0;
#X connect 13 0 14 0;
#X connect 13 0 18 0;
#X connect 13 0 22 0;
#X connect 13 0 26 0;
#X connect 14 0 10 0;
#X connect 16 0 18 1;
#X connect 16 0 19 0;
#X connect 17 0 28 1;
#X connect 18 0 17 0;
#X connect 20 0 22 1;
#X connect 20 0 23 0;
#X connect 21 0 28 2;
#X connect 22 0 21 0;
#X connect 24 0 26 1;
#X connect 24 0 27 0;
#X connect 25 0 28 3;
#X connect 26 0 25 0;
#X connect 28 0 29 0;
#X connect 29 0 31 0;
#X connect 31 0 30 0;
#X connect 32 0 35 0;
#X connect 32 0 46 1;
#X connect 33 0 45 0;
#X connect 34 0 46 0;
#X connect 34 0 47 0;
#X connect 34 0 48 0;
#X connect 36 0 38 0;
#X connect 36 0 47 1;
#X connect 37 0 45 1;
#X connect 39 0 41 0;
#X connect 39 0 48 1;
#X connect 40 0 45 2;
#X connect 42 0 31 0;
#X connect 43 0 31 0;
#X connect 44 0 31 0;
#X connect 45 0 42 0;
#X connect 46 0 33 0;
#X connect 47 0 37 0;
#X connect 48 0 40 0;
